<svg width="44" height="44" viewBox="0 0 44 44" fill="none" xmlns="http://www.w3.org/2000/svg">
    <path d="M5.88565 17.0955C5.88565 17.4392 5.85921 20.0035 5.84599 20.6248C5.84599 20.9156 5.80634 21.2328 5.47589 21.2328H4.86785C4.74888 21.2328 4.73566 21.2593 4.73566 21.3518V21.6294C4.73566 21.7351 4.74888 21.7748 4.86785 21.7748C5.13221 21.7748 5.52876 21.7351 6.92989 21.7351C8.04022 21.7351 8.50286 21.7748 8.74079 21.7748C8.84653 21.7748 8.85975 21.7351 8.85975 21.6558V21.3386C8.85975 21.2593 8.84653 21.2328 8.74079 21.2328H8.37068C8.07987 21.2328 7.94769 21.1007 7.93447 20.7834C7.89482 19.8846 7.84195 17.849 7.84195 17.5185V17.3202C7.84195 17.2013 7.8816 17.1616 8.027 17.1616H11.9792C12.1379 17.1616 12.2701 17.1748 12.2701 17.3202V17.4789C12.2701 17.9018 12.2436 20.03 12.2172 20.6512C12.204 20.9817 12.1643 21.2328 11.8471 21.2328H11.2655C11.1333 21.2328 11.1201 21.2725 11.1201 21.3518V21.6426C11.1201 21.7087 11.1465 21.7748 11.2919 21.7748C11.5959 21.7748 12.0189 21.7351 13.3672 21.7351C14.5568 21.7351 15.0062 21.7748 15.2177 21.7748C15.3499 21.7748 15.3631 21.7087 15.3631 21.6426V21.3518C15.3631 21.2725 15.3499 21.2328 15.2442 21.2328H14.7947C14.3982 21.2328 14.266 21.0478 14.266 20.5719C14.2528 19.8449 14.2263 17.3335 14.2263 16.9105V16.4611C14.2263 15.972 14.2528 13.7381 14.2528 13.5531C14.2528 13.1036 14.2924 12.8789 14.6758 12.8789H15.0723C15.2309 12.8789 15.2442 12.826 15.2442 12.7335V12.4824C15.2442 12.3766 15.2309 12.337 15.0723 12.337C14.9005 12.337 14.3453 12.3766 13.2482 12.3766C12.1247 12.3766 11.5563 12.337 11.3183 12.337C11.2126 12.337 11.1994 12.3766 11.1994 12.4559V12.7467C11.1994 12.8393 11.2126 12.8789 11.3316 12.8789H11.8735C12.1114 12.8789 12.1643 13.1301 12.1775 13.5531C12.1775 13.6852 12.2701 15.5226 12.2701 16.276V16.4082C12.2701 16.5536 12.204 16.58 12.0057 16.58H8.05344C7.8816 16.58 7.84195 16.5404 7.84195 16.4743V16.276C7.84195 15.5358 7.90804 13.791 7.92126 13.6059C7.96091 13.1036 8.027 12.8789 8.50286 12.8789H8.8201C8.9655 12.8789 8.97871 12.8393 8.97871 12.76V12.4824C8.97871 12.3766 8.96549 12.337 8.8201 12.337C8.59539 12.337 8.11953 12.3766 6.82414 12.3766C5.50232 12.3766 5.07934 12.337 4.85463 12.337C4.72245 12.337 4.70923 12.4163 4.70923 12.4956V12.7467C4.70923 12.826 4.72245 12.8789 4.86785 12.8789H5.40979C5.76669 12.8789 5.85921 13.064 5.85921 13.7381C5.85921 13.9232 5.88565 15.7076 5.88565 16.5271L5.88565 17.0955Z" fill="black" stroke="black" stroke-width="0.330407" stroke-linecap="round" stroke-linejoin="round"/>
    <path d="M17.9067 17.122C17.9067 17.8225 17.8671 20.6777 17.8406 20.876C17.7878 21.1932 17.5102 21.2328 17.2458 21.2328H16.8625C16.7964 21.2328 16.7568 21.2593 16.7568 21.3121V21.669C16.7568 21.7484 16.7964 21.7748 16.8625 21.7748C17.0079 21.7748 17.5763 21.7351 18.9642 21.7351C20.2199 21.7351 20.7487 21.7748 20.9073 21.7748C20.9866 21.7748 21.0262 21.7483 21.0262 21.6955V21.3254C21.0262 21.2593 20.9866 21.2328 20.9205 21.2328H20.3785C20.1274 21.2328 19.9291 21.1668 19.9291 20.757C19.9291 20.638 19.8895 17.5846 19.8895 17.4524V16.4346C19.8895 16.276 19.9291 13.3548 19.9291 13.2226C19.9291 12.9847 20.1274 12.8789 20.4579 12.8789H20.8412C20.9073 12.8789 20.9469 12.8525 20.9469 12.7864V12.4559C20.9469 12.3766 20.9205 12.337 20.8544 12.337C20.6693 12.337 20.2464 12.3766 18.8981 12.3766C17.6027 12.3766 16.9286 12.337 16.77 12.337C16.7171 12.337 16.6774 12.3634 16.6774 12.4163V12.7996C16.6774 12.8525 16.7171 12.8789 16.7832 12.8789H17.4177C17.6952 12.8789 17.8274 13.0111 17.8539 13.3283C17.8671 13.5002 17.9067 15.8795 17.9067 16.1967V17.122Z" fill="black" stroke="black" stroke-width="0.330407" stroke-linecap="round" stroke-linejoin="round"/>
    <path d="M22.8857 18.788C22.8329 18.788 22.7932 18.788 22.78 18.8805L22.5685 21.392C22.5553 21.5374 22.6081 21.6034 22.7535 21.6034C22.8461 21.6034 22.9122 21.5902 22.9915 21.4448C23.0708 21.3126 23.1237 21.2201 23.203 21.2201C23.2691 21.2201 23.3484 21.2598 23.507 21.3655C24.0621 21.7356 24.6834 21.9339 25.873 21.9339C27.6178 21.9339 28.7678 20.6253 28.7678 19.0127C28.7678 18.0874 28.5563 17.5058 28.0408 17.0432C27.4989 16.5541 26.9834 16.2236 26.3489 16.0386C25.7012 15.8535 24.9478 15.5363 24.6041 15.1794C24.2736 14.8489 24.2604 14.4524 24.2604 13.9633C24.2604 13.6196 24.6702 12.7605 25.6615 12.7605C26.2564 12.7605 26.6529 12.9455 26.9834 13.3156C27.4328 13.7915 27.6575 14.307 27.8029 14.6903C27.8426 14.7828 27.9086 14.8093 27.9747 14.7828L28.2655 14.6903C28.3052 14.6771 28.3316 14.6639 28.3316 14.611L28.1201 12.3507C28.1069 12.2714 28.0805 12.126 27.988 12.126C27.9086 12.126 27.8426 12.1524 27.7897 12.2053L27.6178 12.3771C27.5385 12.4697 27.446 12.4961 27.3138 12.4432C27.0362 12.3375 26.5207 12.1789 25.5558 12.1789C24.7495 12.1789 24.2472 12.3639 23.6524 12.8133C22.8593 13.4081 22.661 13.9501 22.661 14.7564C22.661 15.5231 22.8593 16.2236 23.3219 16.6334C23.9961 17.215 24.842 17.638 25.2386 17.7834C26.9569 18.4311 27.1684 18.7483 27.1684 19.8454C27.1684 20.8897 26.1506 21.3126 25.5161 21.3126C24.8817 21.3126 24.234 21.0218 23.8507 20.4138C23.5334 19.8983 23.3484 19.3299 23.3219 18.9201C23.3219 18.8276 23.2823 18.8144 23.2294 18.8144L22.8857 18.788Z" fill="black" stroke="black" stroke-width="0.330407" stroke-linecap="round" stroke-linejoin="round"/>
    <path d="M33.4569 16.2495C33.4569 16.5006 33.4569 20.5586 33.4305 20.8362C33.404 21.0741 33.2454 21.2327 32.981 21.2327H32.3069C32.2276 21.2327 32.2144 21.2724 32.2144 21.3649V21.6161C32.2144 21.7218 32.2276 21.7747 32.3334 21.7747C32.5184 21.7747 33.0736 21.735 34.4747 21.735C35.9419 21.735 36.3649 21.7747 36.4971 21.7747C36.6161 21.7747 36.6293 21.735 36.6293 21.6689V21.3649C36.6293 21.2724 36.6161 21.2327 36.4971 21.2327H35.9023C35.585 21.2327 35.4793 21.0345 35.4529 20.704C35.4396 20.5057 35.4396 16.8046 35.4396 16.6196V12.9846H35.8758C36.1799 12.9846 37.3563 13.0374 37.6867 13.2357C38.0172 13.5529 38.5327 14.2403 38.8235 14.7162C38.8764 14.8087 38.9028 14.8483 38.9557 14.8351L39.2333 14.7294C39.2729 14.7162 39.2994 14.6633 39.2861 14.6104C39.1804 13.9098 38.9292 12.2708 38.8896 11.98C38.8632 11.8214 38.8235 11.7685 38.731 11.7685C38.6384 11.7685 38.5591 11.8346 38.427 11.9668C38.2683 12.1254 37.7528 12.284 37.462 12.2972C36.9069 12.3237 36.3385 12.3765 34.8977 12.3765H34.131C32.7563 12.3765 32.2012 12.3369 31.5006 12.2972C31.0247 12.2708 30.7736 12.1518 30.6282 11.9668C30.5092 11.8214 30.4696 11.7685 30.3771 11.7685C30.2845 11.7685 30.2184 11.8214 30.1788 11.9932C30.1259 12.2576 29.6897 14.0024 29.5443 14.5575C29.5311 14.5972 29.5443 14.6633 29.5972 14.6765L29.888 14.7822C29.9409 14.7955 29.9805 14.7558 30.0202 14.6897C30.3506 14.2139 30.9322 13.4075 31.223 13.1961C31.7782 12.9978 32.5713 12.9846 32.9943 12.9846H33.4569V16.2495Z" fill="black" stroke="black" stroke-width="0.330407" stroke-linecap="round" stroke-linejoin="round"/>
    <path d="M7.49892 28.7017C7.49892 28.543 7.52535 25.1988 7.57823 25.0138C7.68397 25.1724 8.90005 28.1333 9.13798 28.7413C9.23051 28.9793 10.9753 33.0769 11.015 33.1694C11.0811 33.3148 11.1604 33.4074 11.2529 33.4074C11.4115 33.4074 11.504 33.2091 11.5701 33.1033C11.6362 32.9844 12.8126 30.0499 13.0902 29.4419C13.3282 28.8999 14.8086 25.3046 14.9408 25.0799H15.0201V29.1114C15.0201 30.0367 14.9804 32.4424 14.9672 32.6011C14.9408 32.9712 14.8218 33.0505 14.5971 33.0505H13.8569C13.7644 33.0505 13.7511 33.0769 13.7511 33.143V33.4734C13.7511 33.5528 13.7644 33.5924 13.8569 33.5924C14.0287 33.5924 14.5442 33.5528 15.8925 33.5528C17.4522 33.5528 17.6902 33.5924 17.8488 33.5924C17.9545 33.5924 17.9678 33.5528 17.9678 33.4734V33.143C17.9678 33.0901 17.9545 33.0505 17.8752 33.0505H17.2407C17.0557 33.0505 16.9367 32.839 16.9367 32.3367C16.9367 32.0988 16.8971 29.204 16.8971 28.9396C16.8839 28.662 16.8706 25.4103 16.8706 25.2121C16.8706 24.9345 16.9103 24.6965 17.2143 24.6965H17.7959C17.8884 24.6965 17.9017 24.6569 17.9017 24.5776V24.2736C17.9017 24.1943 17.8884 24.1546 17.8224 24.1546C17.6769 24.1546 17.2275 24.1943 15.1655 24.1943C14.7689 24.1943 14.5971 24.2075 14.5574 24.3529C14.4914 24.6172 13.1695 27.7764 13.1167 27.9086C13.0374 28.0936 12.0328 30.5522 11.8874 30.8034C11.1471 28.8206 10.1954 26.6264 9.34947 24.3793C9.27016 24.1678 9.16441 24.1546 9.03223 24.1546C8.87361 24.1546 8.46385 24.1943 7.84259 24.1943C6.28284 24.1943 5.92595 24.1546 5.79377 24.1546C5.71446 24.1546 5.70124 24.1943 5.70124 24.2339V24.604C5.70124 24.6569 5.71446 24.6966 5.79377 24.6966H6.22997C6.82479 24.6966 6.95697 25.0931 6.95697 25.7011L6.97019 27.7235C6.97019 27.9615 6.85123 31.081 6.73226 32.0195C6.67939 32.4424 6.52077 33.0505 6.09779 33.0505H5.55584C5.48975 33.0505 5.47653 33.0901 5.47653 33.1298V33.4735C5.47653 33.5792 5.48975 33.5924 5.5955 33.5924C5.71446 33.5924 6.1771 33.5528 7.30065 33.5528C8.26558 33.5528 8.62247 33.5924 8.76787 33.5924C8.87362 33.5924 8.88683 33.5528 8.88683 33.4999V33.143C8.88683 33.0901 8.87361 33.0505 8.79431 33.0505H8.2788C7.84259 33.0505 7.6311 32.3103 7.59145 31.8212C7.51214 30.658 7.49892 28.8603 7.49892 28.7017L7.49892 28.7017Z" fill="black" stroke="black" stroke-width="0.330407" stroke-linecap="round" stroke-linejoin="round"/>
    <path d="M24.1251 29.9306C24.2837 30.4064 24.7992 32.0984 24.9182 32.5742C24.9975 32.9179 24.8786 33.0501 24.5217 33.0501H24.1516C24.0855 33.0501 24.0722 33.1029 24.0722 33.169V33.4202C24.0722 33.5127 24.0855 33.592 24.2176 33.592C24.482 33.592 24.9446 33.5524 26.0418 33.5524C27.7337 33.5524 28.0113 33.592 28.2624 33.592C28.3682 33.592 28.3814 33.4995 28.3814 33.4202V33.169C28.3814 33.1029 28.3682 33.0501 28.2889 33.0501H27.8394C27.6412 33.0501 27.2975 32.8915 27.0728 32.4553C26.8877 32.0984 26.0285 29.6398 25.7245 28.6088C25.4734 27.7628 24.4424 24.8019 24.1912 23.9692C24.1516 23.8238 24.1251 23.7444 24.0458 23.7444C23.9797 23.7444 23.9401 23.7973 23.874 23.8634C23.6757 24.0881 22.8165 24.4318 22.3935 24.5243C22.2878 24.5508 22.2613 24.6036 22.2613 24.6433C22.2613 24.6962 22.3142 24.7622 22.3539 24.8151C22.4464 24.9605 22.3803 25.1324 22.3407 25.2645C22.2217 25.6214 21.151 28.4634 21.0453 28.7277C20.6091 29.8909 19.6706 32.1909 19.4855 32.4685C19.2212 32.865 18.9039 33.0501 18.5867 33.0501H18.243C18.1637 33.0501 18.1505 33.0897 18.1505 33.169V33.4202C18.1505 33.5127 18.1637 33.592 18.243 33.592C18.4281 33.592 18.7189 33.5524 19.6838 33.5524C20.7677 33.5524 21.3096 33.592 21.4815 33.592C21.5872 33.592 21.6004 33.5524 21.6004 33.4466V33.1558C21.6004 33.1029 21.5872 33.0501 21.455 33.0501H20.9924C20.5959 33.0501 20.4769 32.7328 20.4769 32.442C20.4769 32.0191 21.1246 30.2082 21.2303 29.9306H24.1251ZM21.4022 29.4018C21.5079 29.0714 22.6447 25.9519 22.7108 25.7801C22.7504 25.6611 22.7901 25.6082 22.8694 25.6082C22.9355 25.6082 22.9619 25.7007 23.0148 25.899C23.1073 26.2295 23.8872 29.0053 24.0062 29.4018H21.4022Z" fill="black" stroke="black" stroke-width="0.330407" stroke-linecap="round" stroke-linejoin="round"/>
    <path d="M37.6362 30.5255C37.6362 30.1421 37.8081 30.0496 38.046 30.0496H38.4293C38.5086 30.0496 38.5219 30.0232 38.5219 29.9439V29.6134C38.5219 29.5473 38.5086 29.5077 38.4029 29.5077C38.2972 29.5077 37.8081 29.5473 36.592 29.5473C35.4024 29.5473 34.7547 29.5077 34.6357 29.5077C34.5564 29.5077 34.5432 29.5473 34.5432 29.6002V29.9306C34.5432 29.9967 34.5564 30.0496 34.6357 30.0496H35.1909C35.5213 30.0496 35.6535 30.1818 35.6535 30.6576V31.6094C35.6535 32.2967 35.6271 32.7197 35.3495 32.8519C34.9133 33.0634 34.5432 33.1162 33.8558 33.1162C32.957 33.1162 32.4547 32.8387 31.8334 32.2174C31.1197 31.5036 30.6835 30.1421 30.6835 28.5824C30.6835 27.3927 31.1329 26.2956 31.7409 25.5686C32.3622 24.802 33.0231 24.5773 33.7369 24.5773C34.6357 24.5773 35.3098 24.9077 35.8253 25.3968C36.3937 25.9123 36.8167 26.7583 37.0282 27.406C37.0679 27.5249 37.1075 27.5514 37.1868 27.5381L37.5569 27.4588C37.6098 27.4456 37.623 27.3795 37.6098 27.2209L37.4115 24.4979C37.4115 24.3525 37.3719 24.26 37.2265 24.26C37.1472 24.26 37.1207 24.2997 37.0546 24.3922L36.9225 24.6037C36.8432 24.7094 36.7506 24.7359 36.592 24.6434C36.1558 24.3658 35.1644 23.9957 33.8294 23.9957C32.2432 23.9957 31.0536 24.4451 30.0886 25.2911C29.1237 26.1238 28.5553 27.406 28.5553 28.6088C28.5553 30.2082 28.9651 31.3318 29.7714 32.2438C30.6835 33.3145 32.23 33.7507 33.6047 33.7507C35.2834 33.7507 36.407 33.4467 37.4776 32.9047C37.6098 32.8519 37.6891 32.799 37.6891 32.6933C37.6891 32.5875 37.6362 32.4553 37.6362 32.2703V30.5255Z" fill="black" stroke="black" stroke-width="0.330407" stroke-linecap="round" stroke-linejoin="round"/>
    <path d="M14.6781 40.7206C14.9356 40.7206 15.1333 40.5409 15.1333 40.2715C15.1333 39.984 14.9237 39.7924 14.6722 39.7924C14.3308 39.7924 14.1871 40.0679 14.1871 40.2475C14.1871 40.523 14.3967 40.7206 14.6781 40.7206Z" fill="black" stroke="black" stroke-width="0.330407"/>
    <path d="M18.0866 40.7271C19.0327 40.7271 19.5417 40.3678 19.931 39.8827C20.2424 39.4635 20.3801 39.0084 20.3801 38.5713C20.3801 37.7449 20.0148 37.1401 19.5597 36.7808C19.0567 36.3855 18.5956 36.3077 18.0985 36.3077C17.5596 36.3077 16.8829 36.4274 16.3559 37.0682C15.8948 37.6251 15.799 38.194 15.799 38.5593C15.799 39.4336 16.2541 40.0803 16.6793 40.3379C17.1524 40.6313 17.6734 40.7271 18.0866 40.7271ZM18.1345 40.4456C17.6374 40.4456 16.7571 39.9007 16.7571 38.3677C16.7571 37.8766 16.9368 37.2479 17.2901 36.9125C17.6554 36.5592 17.9548 36.5891 18.0746 36.5891C18.5776 36.5891 19.4399 37.3077 19.4399 38.6192C19.4399 39.1102 19.2423 40.4456 18.1345 40.4456Z" fill="black" stroke="black" stroke-width="0.330407"/>
    <path d="M21.4295 38.4934C21.4295 39.0622 21.4295 39.6252 21.4175 40.218C21.4175 40.3677 21.3097 40.4096 21.178 40.4096H20.9983C20.9684 40.4096 20.9684 40.4276 20.9684 40.4575V40.5953C20.9684 40.6372 20.9684 40.6551 21.0163 40.6551C21.0822 40.6551 21.2199 40.6372 21.8547 40.6372C22.4835 40.6372 22.6332 40.6551 22.6392 40.6551C22.729 40.6551 22.735 40.6432 22.735 40.6013V40.4575C22.735 40.4276 22.729 40.4096 22.6871 40.4096H22.4415C22.3517 40.4096 22.3038 40.3018 22.2918 40.1761C22.2799 40.0982 22.2619 39.4275 22.2619 39.0742V38.7688H22.4655C22.7529 38.7688 22.9985 39.212 23.2021 39.6192C23.3039 39.8228 23.6751 40.5174 23.8548 40.6551C24.0285 40.6491 24.25 40.6372 24.4237 40.6372C24.8848 40.6372 25.0405 40.6551 25.0884 40.6551C25.1303 40.6551 25.1363 40.6372 25.1363 40.6013V40.4575C25.1363 40.4336 25.1303 40.4096 25.0884 40.4096C24.9507 40.4096 24.7231 40.3617 24.6512 40.2839C24.5315 40.1461 24.2081 39.691 24.1722 39.6371C24.1243 39.5653 23.7949 39.0323 23.7171 38.9365C23.6033 38.7928 23.5075 38.679 23.3218 38.6191V38.5772C23.8488 38.5293 24.4177 38.1879 24.4177 37.4274C24.4177 37.2058 24.2919 36.9723 24.0764 36.7747C23.8308 36.5471 23.4835 36.3795 23.0164 36.3795C22.7709 36.3795 22.2439 36.3974 21.9086 36.3974C21.2558 36.3974 21.0702 36.3795 21.0163 36.3795C20.9864 36.3795 20.9804 36.3914 20.9804 36.4214V36.5831C20.9804 36.607 20.9864 36.625 21.0163 36.625H21.2558C21.3397 36.625 21.4175 36.7268 21.4235 36.9244C21.4295 37.0861 21.4295 37.4693 21.4295 37.9125L21.4295 38.4934ZM22.2978 36.8106C22.3098 36.7388 22.3278 36.6729 22.3637 36.6489C22.4116 36.607 22.4894 36.595 22.5912 36.595C22.7709 36.595 23.0404 36.6669 23.256 36.8585C23.3877 36.9903 23.4835 37.2538 23.4835 37.5292C23.4835 37.8107 23.2979 38.5652 22.5074 38.5652C22.4535 38.5652 22.3817 38.5652 22.2679 38.5592L22.2978 36.8106Z" fill="black" stroke="black" stroke-width="0.330407"/>
    <path d="M29.4106 39.2659C29.4106 39.0923 29.4885 39.0504 29.5963 39.0504H29.7699C29.8059 39.0504 29.8118 39.0384 29.8118 39.0025V38.8527C29.8118 38.8228 29.8059 38.8048 29.758 38.8048C29.71 38.8048 29.4885 38.8228 28.9375 38.8228C28.3986 38.8228 28.1052 38.8048 28.0513 38.8048C28.0153 38.8048 28.0093 38.8228 28.0093 38.8468V38.9965C28.0093 39.0264 28.0153 39.0504 28.0513 39.0504H28.3028C28.4525 39.0504 28.5124 39.1102 28.5124 39.3258V39.757C28.5124 40.0684 28.5004 40.26 28.3746 40.3199C28.177 40.4157 28.0093 40.4397 27.698 40.4397C27.2907 40.4397 27.0632 40.3139 26.7817 40.0325C26.4584 39.7091 26.2607 39.0923 26.2607 38.3856C26.2607 37.8467 26.4643 37.3497 26.7398 37.0203C27.0213 36.673 27.3207 36.5712 27.6441 36.5712C28.0513 36.5712 28.3567 36.7209 28.5902 36.9425C28.8477 37.176 29.0393 37.5593 29.1352 37.8527C29.1531 37.9066 29.1711 37.9186 29.207 37.9126L29.3747 37.8766C29.3986 37.8706 29.4046 37.8407 29.3986 37.7688L29.3088 36.5352C29.3088 36.4694 29.2909 36.4274 29.225 36.4274C29.1891 36.4274 29.1771 36.4454 29.1471 36.4873L29.0873 36.5831C29.0513 36.631 29.0094 36.643 28.9375 36.6011C28.7399 36.4754 28.2908 36.3077 27.686 36.3077C26.9674 36.3077 26.4284 36.5113 25.9913 36.8945C25.5541 37.2718 25.2966 37.8527 25.2966 38.3976C25.2966 39.1222 25.4823 39.6312 25.8475 40.0444C26.2607 40.5295 26.9614 40.7271 27.5842 40.7271C28.3447 40.7271 28.8537 40.5894 29.3388 40.3438C29.3986 40.3199 29.4346 40.2959 29.4346 40.248C29.4346 40.2001 29.4106 40.1402 29.4106 40.0564L29.4106 39.2659Z" fill="black" stroke="black" stroke-width="0.330407"/>
    <path d="M21.9995 42.999C33.5972 42.999 42.999 33.5972 42.999 21.9995C42.999 10.4018 33.5972 1 21.9995 1C10.4018 1 1 10.4018 1 21.9995C1 33.5972 10.4018 42.999 21.9995 42.999Z" stroke="black" stroke-width="0.660812"/>
    <path d="M41.0609 4.87744H2.93858V42.9997H41.0609V4.87744Z" stroke="black" stroke-width="0.660812"/>
</svg>
